HIERARCHY
ROOT pelvis
{
  OFFSET 0 100 0
  CHANNELS 6 Xposition Yposition Zposition Zrotation Xrotation Yrotation
  JOINT pelvis_right_femur
  {
    OFFSET -10.78128 -3.44521 -0.5502486
    CHANNELS 3 Zrotation Xrotation Yrotation
    JOINT right_femur_tibia
    {
      OFFSET -0.8047443 -44.0398 -0.1307829
      CHANNELS 3 Zrotation Xrotation Yrotation
      JOINT right_tibia_foot
      {
        OFFSET 3.006224 -47.83518 -5
        CHANNELS 3 Zrotation Xrotation Yrotation
        End Site
        {
          OFFSET 0 -5 15
        }
      }
    }
  }
  JOINT pelvis_left_femur
  {
    OFFSET 10.78128 -3.44521 -0.5502486
    CHANNELS 3 Zrotation Xrotation Yrotation
    JOINT left_femur_tibia
    {
      OFFSET 0.8047443 -44.0398 -0.1307829
      CHANNELS 3 Zrotation Xrotation Yrotation
      JOINT left_tibia_foot
      {
        OFFSET -4.370144 -48.10324 -4.275266
        CHANNELS 3 Zrotation Xrotation Yrotation
        End Site
        {
          OFFSET 0 -5 15
        }
      }
    }
  }
  JOINT pelvis_spine1
  {
    OFFSET 0 6.468898 -3.129235
    CHANNELS 3 Zrotation Xrotation Yrotation
    JOINT spine1
    {
      OFFSET 0 23.15396 4.99043
      CHANNELS 3 Zrotation Xrotation Yrotation
      JOINT spine2
      {
        OFFSET 0 20.79997 -5.064912
        CHANNELS 3 Zrotation Xrotation Yrotation
        JOINT neck
        {
          OFFSET 0 14.38658 9.616178
          CHANNELS 3 Zrotation Xrotation Yrotation
          End Site
          {
            OFFSET 0 20 0
          }
        }
      }
      JOINT right_manubrium
      {
        OFFSET -5.722621 16.35077 3.967754
        CHANNELS 3 Zrotation Xrotation Yrotation
        JOINT right_clavicle
        {
          OFFSET -13.16364 1.694482 -4.693211
          CHANNELS 3 Zrotation Xrotation Yrotation
          JOINT right_humerus
          {
            OFFSET -28.5034 -0.3100689 -2.792744
            CHANNELS 3 Zrotation Xrotation Yrotation
            JOINT right_radius
            {
              OFFSET -25.15693 0.02248979 -1.271978
              CHANNELS 3 Zrotation Xrotation Yrotation
              End Site
              {
                OFFSET -15 0 0
              }
            }
          }
        }
      }
      JOINT left_manubrium
      {
        OFFSET 5.722621 16.35077 3.967754
        CHANNELS 3 Zrotation Xrotation Yrotation
        JOINT left_clavicle
        {
          OFFSET 13.16364 1.694482 -4.693211
          CHANNELS 3 Zrotation Xrotation Yrotation
          JOINT left_humerus
          {
            OFFSET 29.39168 -1.063119 -2.237045
            CHANNELS 3 Zrotation Xrotation Yrotation
            JOINT left_radius
            {
              OFFSET 24.59957 -0.9528479 0.9047498
              CHANNELS 3 Zrotation Xrotation Yrotation
              End Site
              {
                OFFSET 15 -0 -0
              }
            }
          }
        }
      }
    }
  }
}
MOTION
Frames: 17
Frame Time: 0.0416666666667
1851.093 105.3801 1923.262 6.039909 -0.3008377 84.74455 4.400776 13.05377 3.390295 -0 10.32211 -0 -2.659721 -16.81211 -2.374623 1.99941 -24.90175 -3.001977 -0 29.31705 -0 -6.115201 -7.124806 19.84418 -0.8435958 1.924146 7.34335 -0.04448494 9.125259 -3.424689 1.735406 23.06825 5.152737 2.111949 -17.88116 6.610442 1.555449 -20.56638 11.52406 80.00791 27.83729 -5.374618 -0 0 20.37935 -22.70598 11.27467 13.36688 4.298281 -16.59982 -2.401637 -92.56866 23.41422 22.82855 0 0 -12.04394 0.08670058 8.338922 13.44311
1857.118 104.1859 1923.206 5.278787 -0.5535309 84.10131 4.025628 15.89064 2.974957 -0 11.50587 -0 -2.146286 -17.51957 -1.553869 2.503578 -26.84792 -2.816987 -0 21.51959 -0 -5.992486 -6.807811 20.03726 -0.67382 1.503477 7.451866 -0.2777675 8.762327 -3.18116 1.622108 22.76622 5.305375 2.064009 -18.18464 6.679614 1.112445 -21.43858 11.23222 79.1078 27.52682 -3.628385 -0 0 22.13962 -23.76087 10.78349 14.42219 4.257367 -15.85209 -2.160848 -93.2123 23.37303 24.54416 0 0 -10.71895 -0.2921747 8.018465 14.14109
1863.581 103.0443 1923.037 4.766451 -0.334924 83.53273 3.025191 18.4901 2.828682 -0 14.46024 -0 -1.418099 -16.36925 -0.9816172 1.833998 -27.3549 -3.466832 -0 17.20771 -0 -5.717327 -6.715212 20.01859 -0.9727086 0.8034765 7.738238 -0.5144209 8.544407 -2.946159 1.651781 22.51992 5.411817 2.084379 -18.51224 6.823435 0.8136305 -21.83884 10.89228 78.90764 27.16908 -2.869333 -0 0 22.99362 -24.64214 10.36323 15.16316 4.164241 -15.18524 -1.917918 -93.66904 23.31429 25.84329 0 0 -9.484372 -0.6284721 7.654849 14.7551
1870.494 102.2216 1922.759 4.639909 0.2900038 83.15515 1.554082 20.38248 3.113188 -0 19.52179 -0 -0.6434686 -13.21295 -0.8778794 0.2108635 -26.45304 -4.622327 -0 16.21501 -0 -5.144584 -7.059926 19.87497 -1.719088 -0.03638973 8.110063 -0.7232825 8.584484 -2.791272 1.799023 22.3187 5.408467 2.102017 -18.87234 6.986706 0.6314965 -21.87044 10.58766 79.50542 26.643 -3.131293 -0 0 22.991 -25.16129 9.954472 15.50769 3.966087 -14.72216 -1.739811 -93.86688 23.24115 26.71665 0 0 -8.534024 -0.9236877 7.130174 15.33036
1877.751 101.948 1922.397 4.8906 1.061226 83.09024 0.02702148 20.83101 3.737506 -0 26.79953 -0 -0.1057638 -8.439186 -1.339855 -1.835203 -24.15157 -5.816951 -0 17.5306 -0 -4.271286 -7.842959 19.63452 -2.699548 -0.8011657 8.33334 -0.8572268 8.925044 -2.833418 1.9671 22.15156 5.308991 2.072994 -19.27931 7.098821 0.5889702 -21.64899 10.40642 80.81729 26.06431 -4.281864 -0 0 22.19638 -25.16538 9.524918 15.45813 3.613408 -14.59673 -1.720122 -93.68229 23.25099 27.09005 0 0 -8.149016 -1.141821 6.445281 15.90843
1885.121 102.3616 1921.994 5.420331 1.659263 83.42507 -1.02709 19.16848 4.38931 -0 35.86722 -0 -0.015307 -2.906795 -2.283414 -3.728535 -20.53494 -6.690839 -0 19.77114 -0 -3.242886 -8.925588 19.30112 -3.598904 -1.258502 8.156127 -0.8742599 9.52008 -3.165361 2.042317 22.03737 5.194402 1.989825 -19.69875 7.122119 0.7251239 -21.25804 10.40501 82.61788 25.63785 -6.072744 -0 0 20.72426 -24.63086 9.096373 15.0906 3.119075 -14.88291 -1.944116 -93.04499 23.45173 26.84077 0 0 -8.489273 -1.240752 5.741781 16.47848
1892.291 103.4412 1921.592 6.106291 1.849575 84.17824 -1.238892 15.15684 4.745425 -0 45.50438 -0 -0.3949628 2.190738 -3.492749 -5.065731 -15.8421 -7.131869 -0 21.56727 -0 -2.312786 -10.1432 18.84846 -4.113472 -1.252938 7.438622 -0.7505571 10.23282 -3.802556 1.95076 22.02209 5.163875 1.857071 -20.0345 7.080918 1.017795 -20.75311 10.57322 84.62883 25.44379 -8.214612 -0 0 18.81172 -23.69402 8.729282 14.52934 2.58169 -15.54236 -2.443847 -92.00133 23.88295 25.86367 0 0 -9.505696 -1.225282 5.226667 16.98815
1898.964 104.972 1921.211 6.823938 1.60627 85.28481 -0.6606824 9.201544 4.675046 -0 53.70793 -0 -1.083585 5.600061 -4.736963 -5.72797 -10.45666 -7.264393 -0 21.89491 -0 -1.72864 -11.41157 18.21534 -4.097898 -0.8128804 6.234343 -0.4806334 10.85741 -4.674856 1.693188 22.15148 5.27047 1.668633 -20.16769 7.045842 1.345249 -20.16756 10.82146 86.58509 25.36614 -10.45288 -0 0 16.78468 -22.5965 8.484372 13.90719 2.161085 -16.44108 -3.153483 -90.67173 24.48599 24.10341 0 0 -11.03512 -1.154594 5.065457 17.34551
1904.974 106.5842 1920.856 7.426803 1.143349 86.61183 0.2374288 2.283651 4.219583 -0 58.21144 -0 -1.8385 6.447695 -5.853296 -5.868603 -4.825664 -7.323857 -0 20.34751 -0 -1.598582 -12.77195 17.35185 -3.67847 -0.1754333 4.786091 -0.07616072 11.17734 -5.658084 1.344863 22.43784 5.483909 1.418425 -20.02405 7.081627 1.539961 -19.50541 11.01031 88.27105 25.23175 -12.63138 -0 0 14.91065 -21.57227 8.391345 13.31779 2.01649 -17.42859 -3.90631 -89.15555 25.14714 21.55845 0 0 -12.98085 -1.100752 5.319501 17.42604
1910.355 107.8709 1920.536 7.746277 0.7889893 88.00132 0.8593267 -4.428988 3.453889 -0 57.51329 -0 -2.476019 4.701398 -6.747747 -5.787457 0.6267612 -7.517426 -0 17.26275 -0 -1.851594 -14.33591 16.29467 -3.202222 0.3423548 3.430313 0.4223573 11.05873 -6.613567 1.022587 22.83632 5.714082 1.140264 -19.62803 7.20125 1.504545 -18.74884 11.0209 89.55426 25.01214 -14.70957 -0 0 13.28541 -20.74214 8.446123 12.77737 2.234237 -18.40972 -4.507249 -87.50715 25.79037 18.33898 0 0 -15.38311 -1.113514 5.947271 17.15599
1915.3 108.536 1920.263 7.66203 0.7611164 89.32018 0.8613213 -10.12235 2.466301 -0 51.84545 -0 -2.943811 1.303941 -7.369688 -5.741732 5.555666 -7.944852 -0 13.56802 -0 -2.335291 -16.1603 15.18546 -2.99396 0.5501047 2.436165 0.9348694 10.52803 -7.417123 0.833214 23.24729 5.880282 0.9257813 -19.10452 7.366433 1.288517 -17.89574 10.82554 90.4111 24.86677 -16.69775 -0 0 11.87451 -20.08265 8.630871 12.22661 2.785263 -19.34551 -4.843113 -85.81043 26.43921 14.76304 0 0 -18.27355 -1.219204 6.839086 16.63044
1920.052 108.4828 1920.04 7.181305 1.03198 90.49323 0.3467557 -14.64202 1.418959 -0 43.14406 -0 -3.280286 -2.295909 -7.718477 -5.809242 9.736524 -8.585905 -0 10.32512 -0 -2.944405 -18.15329 14.18584 -3.1249 0.4836658 1.876145 1.366462 9.754723 -7.987676 0.8273079 23.55816 5.961912 0.8756677 -18.6188 7.527959 1.045259 -16.98745 10.49622 90.91474 24.98565 -18.56141 -0 0 10.63464 -19.48774 8.927122 11.58762 3.545124 -20.20453 -4.931999 -84.22352 27.16906 11.31701 0 0 -21.46636 -1.415195 7.858466 16.08886
1924.811 107.7956 1919.858 6.425686 1.398462 91.50579 -0.2899517 -18.31718 0.5057219 -0 33.86598 -0 -3.541672 -4.93402 -7.8533 -5.906307 13.09721 -9.328376 -0 8.259162 -0 -3.652839 -20.09153 13.36678 -3.421958 0.316445 1.637942 1.660411 8.938981 -8.312729 0.986 23.70101 5.985658 1.022648 -18.29767 7.660349 0.9110746 -16.08696 10.1421 91.18573 25.41658 -20.20427 -0 0 9.557813 -18.8639 9.306647 10.83314 4.360843 -20.93777 -4.868673 -82.91473 27.98522 8.432053 0 0 -24.54995 -1.641843 8.878945 15.71895
1929.712 106.6577 1919.707 5.545083 1.651044 92.38069 -0.6750035 -21.52892 -0.1450698 -0 25.75804 -0 -3.770419 -6.182061 -7.871654 -5.909567 15.70838 -10.01992 -0 7.629388 -0 -4.461909 -21.71105 12.69005 -3.65527 0.2009487 1.544197 1.825601 8.212037 -8.444849 1.246588 23.676 5.979898 1.309804 -18.19033 7.762623 0.9311079 -15.23606 9.843128 91.33773 26.04865 -21.53677 -0 0 8.627916 -18.1777 9.723267 10.00352 5.108219 -21.49802 -4.738309 -81.97798 28.76699 6.296642 0 0 -27.08717 -1.782345 9.808187 15.51283
1934.85 105.2798 1919.594 4.658123 1.672228 93.1477 -0.6084313 -24.42103 -0.4797087 -0 19.53778 -0 -3.996627 -6.232262 -7.870009 -5.745106 17.71551 -10.52764 -0 8.436916 -0 -5.354629 -22.77132 12.0821 -3.676791 0.1875212 1.454461 1.916023 7.624093 -8.467217 1.538871 23.52992 5.951378 1.636147 -18.28079 7.839773 1.08007 -14.44299 9.633147 91.44717 26.71714 -22.53248 -0 0 7.791917 -17.44386 10.12615 9.171537 5.705357 -21.86202 -4.580613 -81.42046 29.33446 4.874052 0 0 -28.78667 -1.715772 10.59547 15.31797
1940.296 103.8689 1919.533 3.853105 1.435292 93.81973 -0.03236389 -26.85413 -0.4659744 -0 15.28266 -0 -4.244612 -5.555644 -7.912496 -5.399137 19.24273 -10.77928 -0 10.68506 -0 -6.289367 -23.05956 11.51079 -3.434942 0.2392843 1.299961 1.992264 7.187416 -8.455431 1.805452 23.32352 5.893184 1.912133 -18.51848 7.889423 1.319415 -13.70393 9.519419 91.54717 27.30073 -23.22184 -0 0 6.985163 -16.69882 10.48156 8.405263 6.095889 -22.02922 -4.404686 -81.20972 29.55251 4.046043 0 0 -29.52351 -1.380332 11.22294 14.98092
1946.097 102.6264 1919.537 3.214882 0.9715125 94.37984 1.031149 -28.47466 -0.07061826 -0 12.87938 -0 -4.534255 -4.661071 -8.01519 -4.896202 20.30646 -10.77323 -0 14.49752 -0 -7.212737 -22.38148 11.01297 -2.937747 0.2846245 1.082405 2.093694 6.916014 -8.453133 2.005314 23.11373 5.80194 2.087938 -18.83763 7.900459 1.632271 -13.03097 9.504711 91.62949 27.75788 -23.65106 -0 0 6.176637 -15.99054 10.78545 7.756631 6.232175 -22.00898 -4.215042 -81.32032 29.3895 3.734056 0 0 -29.29131 -0.805768 11.68768 14.44942
